<svg xmlns="http://www.w3.org/2000/svg" viewBox="0 0 220 380" role="img" aria-label="Dos de carte">
  <defs>
    <pattern id="lattice" width="24" height="24" patternUnits="userSpaceOnUse" patternTransform="rotate(45)">
      <path d="M0 12 H24 M12 0 V24" stroke="#f4e3c1" stroke-width="1.1" opacity="0.5"/>
      <circle cx="12" cy="12" r="2.4" fill="#f4e3c1" opacity="0.55"/>
    </pattern>
    <radialGradient id="glow" cx="50%" cy="50%" r="70%">
      <stop offset="0%" stop-color="#2a3f6b"/>
      <stop offset="100%" stop-color="#16233f"/>
    </radialGradient>
  </defs>

  <rect x="0" y="0" width="220" height="380" rx="14" fill="#fbf3e0"/>
  <rect x="8" y="8" width="204" height="364" rx="10" fill="url(#glow)"/>
  <rect x="8" y="8" width="204" height="364" rx="10" fill="url(#lattice)"/>
  <rect x="18" y="18" width="184" height="344" rx="6" fill="none" stroke="#f4e3c1" stroke-width="1.6" opacity="0.8"/>

  <g fill="none" stroke="#f4e3c1" stroke-width="1.6" opacity="0.9" transform="translate(110 190)">
    <circle r="26"/>
    <circle r="15"/>
    <g stroke-width="1.2">
      <path d="M0 -40 L6 -18 L0 -22 L-6 -18 Z" fill="#f4e3c1"/>
      <path d="M0 40 L6 18 L0 22 L-6 18 Z" fill="#f4e3c1"/>
      <path d="M-40 0 L-18 6 L-22 0 L-18 -6 Z" fill="#f4e3c1"/>
      <path d="M40 0 L18 6 L22 0 L18 -6 Z" fill="#f4e3c1"/>
    </g>
    <circle r="4" fill="#f4e3c1"/>
  </g>
</svg>
